<?xml version="1.0" standalone="no"?>
<!DOCTYPE svg PUBLIC "-//W3C//DTD SVG 20010904//EN"
 "http://www.w3.org/TR/2001/REC-SVG-20010904/DTD/svg10.dtd">
<svg version="1.0" xmlns="http://www.w3.org/2000/svg"
 width="736.000000pt" height="736.000000pt" viewBox="0 0 736.000000 736.000000"
 preserveAspectRatio="xMidYMid meet">

<g transform="translate(0.000000,736.000000) scale(0.100000,-0.100000)"
fill="#000000" stroke="none">
<path d="M3400 7350 c-913 -80 -1721 -460 -2350 -1106 -179 -184 -291 -323
-425 -524 -166 -251 -266 -441 -369 -708 -111 -284 -177 -543 -222 -867 -25
-182 -30 -638 -10 -832 80 -754 362 -1423 842 -1997 121 -145 371 -391 507
-500 550 -439 1176 -703 1882 -793 198 -25 663 -25 860 0 587 76 1104 264
1579 574 866 566 1453 1462 1620 2473 14 85 28 188 32 228 l7 72 -489 0 -489
0 -1322 -1322 -1323 -1323 -1500 1500 -1500 1500 1503 1503 1502 1502 1365
-1365 1365 -1365 -786 0 -786 0 -13 48 c-25 89 -90 225 -155 323 -395 594
-1208 736 -1782 313 -321 -237 -503 -600 -503 -1002 0 -347 122 -643 365 -887
316 -318 774 -437 1218 -319 112 30 270 104 374 176 89 61 232 198 290 278 89
123 185 320 208 428 l7 32 -541 0 -541 0 0 190 0 190 1766 0 1767 0 -6 183
c-12 429 -149 934 -377 1386 -310 617 -823 1164 -1420 1513 -445 261 -909 417
-1440 483 -149 19 -562 27 -710 15z"/>
</g>
</svg>
